<svg version="1.1" viewBox="0.0 0.0 960.0 540.0" fill="none" stroke="none" stroke-linecap="square" stroke-miterlimit="10" xmlns:xlink="http://www.w3.org/1999/xlink" xmlns="http://www.w3.org/2000/svg"><clipPath id="p.0"><path d="m0 0l960.0 0l0 540.0l-960.0 0l0 -540.0z" clip-rule="nonzero"/></clipPath><g clip-path="url(#p.0)"><path fill="#ffffff" d="m0 0l960.0 0l0 540.0l-960.0 0z" fill-rule="evenodd"/><path fill="#000000" fill-opacity="0.0" d="m58.362206 140.54593l843.27563 0l0 338.04724l-843.27563 0z" fill-rule="evenodd"/><path fill="#000000" d="m136.2808 405.59317l0 -177.85938l100.796875 0q13.0625 0 22.92189 4.0q9.875 4.0 16.265625 10.40625q6.40625 6.390625 9.609375 14.53125q3.203125 8.125 3.203125 16.390625q0 16.796875 -8.8125 27.34375q-8.796875 10.53125 -21.59375 13.453125q7.203125 1.078125 13.328125 4.8125q6.140625 3.71875 10.671875 9.59375q4.53125 5.859375 7.203125 13.328125q2.671875 7.46875 2.671875 15.734375q0 9.59375 -3.203125 18.40625q-3.203125 8.796875 -9.734375 15.46875q-6.53125 6.65625 -16.40625 10.53125q-9.85939 3.859375 -22.92189 3.859375l-104.0 0zm90.390625 -109.59375q6.9375 0 11.328125 -4.125q4.40625 -4.140625 4.40625 -10.8125q0 -6.390625 -4.40625 -10.515625q-4.390625 -4.140625 -11.328125 -4.140625l-44.53125 0l0 29.59375l44.53125 0zm1.609375 70.921875q8.265625 0 12.921875 -4.390625q4.671875 -4.40625 4.671875 -11.609375q0 -6.65625 -4.53125 -11.3125q-4.53125 -4.671875 -13.0625 -4.671875l-46.140625 0l0 31.984375l46.140625 0zm89.32622 38.671875l0 -177.85938l45.859375 0l0 137.85938l71.46875 0l0 40.0l-117.328125 0z" fill-rule="nonzero"/><path fill="#cc0000" d="m544.7931 408.7963q-20.53125 0 -37.859344 -6.796875q-17.328125 -6.8125 -30.140625 -18.9375q-12.796875 -12.140625 -20.0 -29.0625q-7.1875 -16.9375 -7.1875 -37.203125q0 -20.265625 7.1875 -37.1875q7.203125 -16.9375 20.0 -29.0625q12.8125 -12.140625 30.140625 -18.9375q17.328094 -6.8125 37.859344 -6.8125q20.265625 0 37.734375 6.8125q17.46875 6.796875 30.125 18.9375q12.671875 12.125 19.875 29.0625q7.203125 16.921875 7.203125 37.1875q0 20.265625 -7.203125 37.203125q-7.203125 16.921875 -19.875 29.0625q-12.65625 12.125 -30.125 18.9375q-17.46875 6.796875 -37.734375 6.796875zm0 -40.53125q10.9375 0 19.859375 -4.0q8.9375 -4.0 15.203125 -10.9375q6.28125 -6.9375 9.734375 -16.265625q3.46875 -9.328125 3.46875 -20.265625q0 -10.9375 -3.46875 -20.265625q-3.453125 -9.328125 -9.734375 -16.265625q-6.265625 -6.9375 -15.203125 -10.9375q-8.921875 -4.0 -19.859375 -4.0q-11.1875 0 -20.125 4.0q-8.9375 4.0 -15.2030945 10.9375q-6.265625 6.9375 -9.734375 16.265625q-3.46875 9.328125 -3.46875 20.265625q0 10.9375 3.46875 20.265625q3.46875 9.328125 9.734375 16.265625q6.2655945 6.9375 15.2030945 10.9375q8.9375 4.0 20.125 4.0z" fill-rule="nonzero"/><path fill="#000000" d="m750.1299 408.7963q-20.0 0 -37.46875 -6.390625q-17.46875 -6.40625 -30.546875 -18.40625q-13.0625 -12.0 -20.65625 -28.9375q-7.59375 -16.9375 -7.59375 -38.265625q0 -21.0625 7.59375 -38.125q7.59375 -17.078125 20.65625 -29.078125q13.078125 -12.0 30.546875 -18.390625q17.46875 -6.40625 37.46875 -6.40625q14.921875 0 26.921875 3.609375q12.0 3.59375 21.328125 9.59375q9.34375 6.0 16.265625 13.875q6.9375 7.859375 11.46875 16.125l-38.390625 20.0q-5.0625 -8.796875 -14.796875 -15.734375q-9.734375 -6.9375 -22.796875 -6.9375q-10.9375 0 -20.015625 4.0q-9.0625 4.0 -15.734375 10.9375q-6.65625 6.9375 -10.265625 16.265625q-3.59375 9.328125 -3.59375 20.265625q0 10.9375 3.59375 20.265625q3.609375 9.328125 10.265625 16.265625q6.671875 6.9375 15.734375 10.9375q9.078125 4.0 20.015625 4.0q9.859375 0 18.921875 -3.328125q9.0625 -3.34375 13.875 -7.34375l0 -13.859375l-40.0 0l0 -40.265625l85.859375 0l0 70.65625q-14.40625 16.0 -33.875 25.34375q-19.453125 9.328125 -44.78125 9.328125z" fill-rule="nonzero"/><path fill="#000000" fill-opacity="0.0" d="m109.15158 89.698166l235.21262 0l0 131.49606l-235.21262 0z" fill-rule="evenodd"/><path fill="#595959" d="m154.70842 190.85815l0 -49.625l-17.953125 0l0 -14.406242l52.328125 0l0 14.406242l-17.859375 0l0 49.625l-16.515625 0zm85.34085 0l0 -25.734375l-26.59375 0l0 25.734375l-16.5 0l0 -64.03124l16.5 0l0 23.906242l26.59375 0l0 -23.906242l16.51564 0l0 64.03124l-16.51564 0zm28.042221 0l0 -64.03124l46.9375 0l0 14.406242l-30.4375 0l0 9.984375l29.765625 0l0 14.390625l-29.765625 0l0 10.84375l30.4375 0l0 14.40625l-46.9375 0z" fill-rule="nonzero"/></g></svg>