<?xml version="1.0" encoding="utf-8"?>
<!-- Generated by IcoMoon.io -->
<!DOCTYPE svg PUBLIC "-//W3C//DTD SVG 1.1//EN" "http://www.w3.org/Graphics/SVG/1.1/DTD/svg11.dtd">
<svg version="1.1" xmlns="http://www.w3.org/2000/svg" xmlns:xlink="http://www.w3.org/1999/xlink" width="512" height="512" viewBox="0 0 512 512">
<g>
</g>
	<path d="M18.053 116.644l0.594 275.865 0.041 4.987 1.065 4.915c6.482 29.061 39.793 84.060 119.593 84.060h236.565l2.509-0.276c40.663-4.485 117.125-35.563 115.62-121.241 0 0.543-0.584-99.779-0.584-99.779l-0.246-46.551-134.574 1.72 46.838 46.234v-151.184l-2.396-7.168c-10.219-30.29-47.933-81.593-124.508-81.593 0.348 0-156.365-1.116-156.365-1.116-9.974 0.195-54.784 2.581-82.975 33.065-15.216 16.486-22.497 37.499-21.105 60.743l-0.072-2.683zM121.559 117.954l156.642 1.126c27.331 0 35.758 15.268 37.704 19.917 0 0-0.185-0.41-0.471-1.28l-2.365-14.736v190.423l134.738-1.762-46.797-45.916 0.584 100.301c0.481 24.279-31.877 28.109-33.25 28.262l5.007-0.276h-234.025c-24.75 0-29.348-11.55-29.348-11.684l1.085 9.943-0.573-275.845v-1.372l-0.103-1.331c0.123 2.529-1.987 6.891-4.004 8.346 2.918-2.16 12.677-4.086 15.175-4.117z" fill="#000000" />
	<path d="M67.553 207.893h336.589v105.616h-336.589v-105.615z" fill="#000000" />
</svg>
