<?xml version="1.0" encoding="utf-8"?>
<!-- Svg Vector Icons : http://www.onlinewebfonts.com/icon -->
<!DOCTYPE svg PUBLIC "-//W3C//DTD SVG 1.1//EN" "http://www.w3.org/Graphics/SVG/1.1/DTD/svg11.dtd">
<svg version="1.1" xmlns="http://www.w3.org/2000/svg" xmlns:xlink="http://www.w3.org/1999/xlink" x="0px" y="0px" viewBox="0 0 1000 1000" enable-background="new 0 0 1000 1000" xml:space="preserve">
<metadata> Svg Vector Icons : http://www.onlinewebfonts.com/icon </metadata>
<g><path d="M95.7,132.5h808.5c42.8,0,85.8,42.9,85.8,85.8v563.5c0,42.8-42.9,85.8-85.8,85.8H95.7c-42.8,0-85.7-42.9-85.7-85.8V218.3C10,175.4,52.9,132.5,95.7,132.5z M108,720.5c0,32.1,16.9,49,49,49h686c32.1,0,49-16.9,49-49v-441L565.1,614.1c-30.3,30.3-79.4,30.3-109.7,0L108,279.5V720.5z M181.5,230.5l287.6,287.6c22.7,22.7,59.6,22.7,82.3,0L843,230.5H181.5z"/></g>
</svg>